<?xml version="1.0" encoding="UTF-8" standalone="no"?>
<svg width="38px" height="36px" viewBox="0 0 38 36" version="1.1" xmlns="http://www.w3.org/2000/svg" xmlns:xlink="http://www.w3.org/1999/xlink">
    <!-- Generator: Sketch 41.2 (35397) - http://www.bohemiancoding.com/sketch -->
    <title>Fill 1</title>
    <desc>Created with Sketch.</desc>
    <defs></defs>
    <g id="Page-1" stroke="none" stroke-width="1" fill="none" fill-rule="evenodd">
        <g id="Events-Detail-Page" transform="translate(-24.000000, -18.000000)" fill="#FFFFFF">
            <g id="FTF-Logo-Mark" transform="translate(24.000000, 18.000000)">
                <path d="M36.0728078,12.6858026 L27.4501413,12.6858026 C25.2246057,12.6858026 23.2528668,11.2529001 22.5650907,9.13735728 L19.9008678,0.936258576 C19.5161069,-0.246699195 17.8426753,-0.246699195 17.4587704,0.936258576 L14.7936915,9.13735728 C14.1063434,11.2529001 12.1341765,12.6858026 9.90949687,12.6858026 L1.28640238,12.6858026 C0.0422423777,12.6858026 -0.474766663,14.2774885 0.531860211,15.0089194 L7.50805835,20.0771487 C9.30774628,21.3850789 10.0614325,23.7030598 9.37365637,25.8194586 L6.70900547,34.0201293 C6.32424461,35.2026591 7.67839742,36.1866026 8.68459631,35.4555998 L15.2554902,30.6818259 L15.2554902,25.7514085 C13.9535519,24.731942 13.1155521,23.1462479 13.1155521,21.3688154 L13.1155521,19.6568649 L13.1155521,17.5169268 L13.1155521,17.0889392 C13.1155521,16.1447985 13.8833619,15.3769887 14.8275026,15.3769887 C15.1437854,15.3769887 15.4399528,15.4630142 15.6946055,15.6132379 C15.7896187,14.7589746 16.5163417,14.0930259 17.3954283,14.0930259 C17.9064455,14.0930259 18.3656762,14.3177194 18.6793911,14.6738051 C18.993534,14.3177194 19.4523367,14.0930259 19.963354,14.0930259 C20.4743712,14.0930259 20.9336019,14.3177194 21.2473168,14.6738051 C21.5614597,14.3177194 22.0202624,14.0930259 22.5312797,14.0930259 C23.4754203,14.0930259 24.2432301,14.8608357 24.2432301,15.8049763 L24.2432301,17.5169268 L24.2432301,18.372902 L24.2432301,20.5128401 L24.2432301,21.3688154 C24.2432301,23.1462479 23.4048024,24.731942 22.103292,25.7514085 L22.103292,30.6813979 L28.6746139,35.4555998 C29.6803848,36.1866026 31.0349656,35.2026591 30.6502047,34.0201293 L27.9855538,25.8194586 C27.2982057,23.7030598 28.0514639,21.3850789 29.8515798,20.0771487 L36.827778,15.0089194 C37.8335489,14.2774885 37.3165398,12.6858026 36.0728078,12.6858026" id="Fill-1"></path>
            </g>
        </g>
    </g>
</svg>