<?xml version="1.0" encoding="UTF-8" standalone="no"?>
<svg width="300px" height="149px" viewBox="0 0 300 149" version="1.1" xmlns="http://www.w3.org/2000/svg" xmlns:xlink="http://www.w3.org/1999/xlink">
    <!-- Generator: Sketch 41.2 (35397) - http://www.bohemiancoding.com/sketch -->
    <title>Group 4</title>
    <desc>Created with Sketch.</desc>
    <defs>
        <polygon id="path-1" points="22.4850646 0.167001435 0 0.167001435 0 31.4202009 22.4850646 31.4202009 22.4850646 0.167001435"></polygon>
        <polygon id="path-3" points="21.7464706 0.167001435 0.128823529 0.167001435 0.128823529 31.4202009 21.7464706 31.4202009 21.7464706 0.167001435"></polygon>
        <polygon id="path-5" points="26.8497418 0.167001435 0.153615495 0.167001435 0.153615495 31.4202009 26.8497418 31.4202009 26.8497418 0.167001435"></polygon>
        <polygon id="path-7" points="27.017604 0.167001435 0.148020086 0.167001435 0.148020086 31.420373 27.017604 31.420373 27.017604 0.167001435"></polygon>
        <polygon id="path-9" points="22.7641894 0.167001435 0.278823529 0.167001435 0.278823529 31.4202009 22.7641894 31.4202009 22.7641894 0.167001435"></polygon>
        <polygon id="path-11" points="22.0255524 0.167001435 0.407905308 0.167001435 0.407905308 31.4202009 22.0255524 31.4202009 22.0255524 0.167001435"></polygon>
        <polygon id="path-13" points="26.1304304 0.167001435 0.215939742 0.167001435 0.215939742 31.4202009 26.1304304 31.4202009 26.1304304 0.167001435"></polygon>
        <polygon id="path-15" points="27.1941176 0.167001435 0.238020086 0.167001435 0.238020086 31.4202009 27.1941176 31.4202009 27.1941176 0.167001435"></polygon>
        <polygon id="path-17" points="26.4254806 0.167001435 0.381004304 0.167001435 0.381004304 31.4202009 26.4254806 31.4202009 26.4254806 0.167001435"></polygon>
        <polygon id="path-19" points="98.5863529 94.3056102 98.5863529 0.209392941 0 0.209392941 0 94.3056102"></polygon>
        <polygon id="path-21" points="0.728470588 48.5647059 25.5755294 48.5647059 25.5755294 -0.000225882353 0.728470588 -0.000225882353 0.728470588 48.5647059"></polygon>
    </defs>
    <g id="Page-1" stroke="none" stroke-width="1" fill="none" fill-rule="evenodd">
        <g id="Homepage---Gallery" transform="translate(-38.000000, -55.000000)">
            <g id="Group-2" transform="translate(38.000000, 54.000000)">
                <g id="Group-4">
                    <g id="Page-1" transform="translate(0.000000, 118.000000)">
                        <g id="Group-3" transform="translate(0.000000, 0.263544)">
                            <mask id="mask-2" fill="white">
                                <use xlink:href="#path-1"></use>
                            </mask>
                            <g id="Clip-2"></g>
                            <path d="M8.29080344,31.4202009 L1.56210904,31.4202009 C1.01246772,31.4202009 0.614332855,31.2975323 0.368995696,31.0513343 C0.122367288,30.8055667 -0.000301291248,30.4074319 -0.000301291248,29.8573601 L-0.000301291248,1.7292396 C-0.000301291248,1.17959828 0.122367288,0.781463415 0.368995696,0.535265423 C0.614332855,0.289928264 1.01246772,0.166829268 1.56210904,0.166829268 L20.9226542,0.166829268 C21.4718651,0.166829268 21.87,0.289928264 22.1157676,0.535265423 C22.3615352,0.781463415 22.4850646,1.17959828 22.4850646,1.7292396 L22.4850646,6.89509326 C22.4850646,7.44473458 22.3615352,7.84329986 22.1157676,8.08863702 C21.87,8.33440459 21.4718651,8.45707317 20.9226542,8.45707317 L9.85321377,8.45707317 L9.85321377,12.9721377 L17.4065854,12.9721377 C17.9557963,12.9721377 18.3539311,13.0952367 18.5996987,13.3405739 C18.8454663,13.5867719 18.9689957,13.9849067 18.9689957,14.5345481 L18.9689957,19.7434433 C18.9689957,20.2935151 18.8454663,20.6916499 18.5996987,20.9374175 C18.3539311,21.1836155 17.9557963,21.3062841 17.4065854,21.3062841 L9.85321377,21.3062841 L9.85321377,29.8573601 C9.85321377,30.4074319 9.73011478,30.8055667 9.4843472,31.0513343 C9.23814921,31.2975323 8.84001435,31.4202009 8.29080344,31.4202009" id="Fill-1" fill="#48407A" mask="url(#mask-2)"></path>
                        </g>
                        <g id="Group-6" transform="translate(25.394548, 0.263544)">
                            <mask id="mask-4" fill="white">
                                <use xlink:href="#path-3"></use>
                            </mask>
                            <g id="Clip-5"></g>
                            <path d="M1.69166428,31.4202009 C1.14202296,31.4202009 0.743457676,31.2975323 0.498120516,31.0513343 C0.251492109,30.8055667 0.128823529,30.4074319 0.128823529,29.8573601 L0.128823529,24.6919369 C0.128823529,24.142726 0.251492109,23.7445911 0.498120516,23.4983931 C0.743457676,23.2526255 1.14202296,23.1290961 1.69166428,23.1290961 L5.98893831,23.1290961 L5.98893831,8.54444763 L1.69166428,8.54444763 C1.14202296,8.54444763 0.743457676,8.42134864 0.498120516,8.17515065 C0.251492109,7.92981349 0.128823529,7.53167862 0.128823529,6.98160689 L0.128823529,1.7292396 C0.128823529,1.17959828 0.251492109,0.781463415 0.498120516,0.535265423 C0.743457676,0.289928264 1.14202296,0.166829268 1.69166428,0.166829268 L20.1836298,0.166829268 C20.7328407,0.166829268 21.1309756,0.289928264 21.3771736,0.535265423 C21.6229412,0.781463415 21.7464706,1.17959828 21.7464706,1.7292396 L21.7464706,6.98160689 C21.7464706,7.53167862 21.6229412,7.92981349 21.3771736,8.17515065 C21.1309756,8.42134864 20.7328407,8.54444763 20.1836298,8.54444763 L15.9728694,8.54444763 L15.9728694,23.1290961 L20.1836298,23.1290961 C20.7328407,23.1290961 21.1309756,23.2526255 21.3771736,23.4983931 C21.6229412,23.7445911 21.7464706,24.142726 21.7464706,24.6919369 L21.7464706,29.8573601 C21.7464706,30.4074319 21.6229412,30.8055667 21.3771736,31.0513343 C21.1309756,31.2975323 20.7328407,31.4202009 20.1836298,31.4202009 L1.69166428,31.4202009 Z" id="Fill-4" fill="#48407A" mask="url(#mask-4)"></path>
                        </g>
                        <g id="Group-9" transform="translate(50.789096, 0.263544)">
                            <mask id="mask-6" fill="white">
                                <use xlink:href="#path-5"></use>
                            </mask>
                            <g id="Clip-8"></g>
                            <path d="M8.22736011,31.4202009 L1.71602582,31.4202009 C1.16638451,31.4202009 0.768249641,31.2975323 0.522912482,31.0513343 C0.276284075,30.8055667 0.153615495,30.4074319 0.153615495,29.8573601 L0.153615495,1.7292396 C0.153615495,1.17959828 0.276284075,0.781463415 0.522912482,0.535265423 C0.768249641,0.289928264 1.16638451,0.166829268 1.71602582,0.166829268 L6.23065997,0.166829268 C6.78030129,0.166829268 7.25074605,0.253342898 7.64156385,0.426800574 C8.03195122,0.600688666 8.41545194,0.90456241 8.792066,1.33842181 L17.212726,10.9750072 L17.212726,1.7292396 C17.212726,1.17959828 17.3353945,0.781463415 17.5815925,0.535265423 C17.8273601,0.289928264 18.225495,0.166829268 18.7755667,0.166829268 L25.286901,0.166829268 C25.8361119,0.166829268 26.2342468,0.289928264 26.4804448,0.535265423 C26.7262123,0.781463415 26.8497418,1.17959828 26.8497418,1.7292396 L26.8497418,29.8573601 C26.8497418,30.4074319 26.7262123,30.8055667 26.4804448,31.0513343 C26.2342468,31.2975323 25.8361119,31.4202009 25.286901,31.4202009 L18.7755667,31.4202009 C18.225495,31.4202009 17.8273601,31.2975323 17.5815925,31.0513343 C17.3353945,30.8055667 17.212726,30.4074319 17.212726,29.8573601 L17.212726,24.5184792 L9.79020086,15.5331133 L9.79020086,29.8573601 C9.79020086,30.4074319 9.66667145,30.8055667 9.42090387,31.0513343 C9.17470588,31.2975323 8.77657102,31.4202009 8.22736011,31.4202009" id="Fill-7" fill="#48407A" mask="url(#mask-6)"></path>
                        </g>
                        <g id="Group-12" transform="translate(81.779053, 0.263544)">
                            <mask id="mask-8" fill="white">
                                <use xlink:href="#path-7"></use>
                            </mask>
                            <g id="Clip-11"></g>
                            <path d="M10.0015352,8.45724534 L10.0015352,23.2162123 L15.1673888,23.2162123 C15.8616499,23.2162123 16.3751363,23.0427547 16.7082783,22.6949785 C17.0405595,22.3476327 17.2071306,21.8126255 17.2071306,21.0890961 L17.2071306,10.5408895 C17.2071306,9.81779053 17.0405595,9.28967001 16.7082783,8.95652798 C16.3751363,8.62424677 15.8616499,8.45724534 15.1673888,8.45724534 L10.0015352,8.45724534 Z M16.3394118,31.420373 L1.71043042,31.420373 C1.1607891,31.420373 0.762654232,31.297274 0.517317073,31.051076 C0.271119082,30.8057389 0.148020086,30.407604 0.148020086,29.8575323 L0.148020086,1.72898135 C0.148020086,1.17977044 0.271119082,0.781635581 0.517317073,0.53543759 C0.762654232,0.289670014 1.1607891,0.166571019 1.71043042,0.166571019 L16.3394118,0.166571019 C19.956198,0.166571019 22.6398422,0.89010043 24.3916356,2.33672884 C26.1421377,3.78464849 27.017604,6.01205165 27.017604,9.02195122 L27.017604,22.5649928 C27.017604,25.5753228 26.1421377,27.8031564 24.3916356,29.2497848 C22.6398422,30.697274 19.956198,31.420373 16.3394118,31.420373 L16.3394118,31.420373 Z" id="Fill-10" fill="#48407A" mask="url(#mask-8)"></path>
                        </g>
                        <g id="Group-15" transform="translate(162.697274, 0.263544)">
                            <mask id="mask-10" fill="white">
                                <use xlink:href="#path-9"></use>
                            </mask>
                            <g id="Clip-14"></g>
                            <path d="M8.56992826,31.4202009 L1.84123386,31.4202009 C1.29159254,31.4202009 0.893457676,31.2975323 0.648120516,31.0513343 C0.401492109,30.8055667 0.278823529,30.4074319 0.278823529,29.8573601 L0.278823529,1.7292396 C0.278823529,1.17959828 0.401492109,0.781463415 0.648120516,0.535265423 C0.893457676,0.289928264 1.29159254,0.166829268 1.84123386,0.166829268 L21.2017791,0.166829268 C21.75099,0.166829268 22.1491248,0.289928264 22.3948924,0.535265423 C22.64066,0.781463415 22.7641894,1.17959828 22.7641894,1.7292396 L22.7641894,6.89509326 C22.7641894,7.44473458 22.64066,7.84329986 22.3948924,8.08863702 C22.1491248,8.33440459 21.75099,8.45707317 21.2017791,8.45707317 L10.1323386,8.45707317 L10.1323386,12.9721377 L17.6857102,12.9721377 C18.2349211,12.9721377 18.633056,13.0952367 18.8788235,13.3405739 C19.1245911,13.5867719 19.2481205,13.9849067 19.2481205,14.5345481 L19.2481205,19.7434433 C19.2481205,20.2935151 19.1245911,20.6916499 18.8788235,20.9374175 C18.633056,21.1836155 18.2349211,21.3062841 17.6857102,21.3062841 L10.1323386,21.3062841 L10.1323386,29.8573601 C10.1323386,30.4074319 10.0092396,30.8055667 9.76347202,31.0513343 C9.51727403,31.2975323 9.11913917,31.4202009 8.56992826,31.4202009" id="Fill-13" fill="#48407A" mask="url(#mask-10)"></path>
                        </g>
                        <g id="Group-18" transform="translate(188.091822, 0.263544)">
                            <mask id="mask-12" fill="white">
                                <use xlink:href="#path-11"></use>
                            </mask>
                            <g id="Clip-17"></g>
                            <path d="M1.97074605,31.4202009 C1.42110473,31.4202009 1.02253945,31.2975323 0.777202296,31.0513343 C0.530573888,30.8055667 0.407905308,30.4074319 0.407905308,29.8573601 L0.407905308,24.6919369 C0.407905308,24.142726 0.530573888,23.7445911 0.777202296,23.4983931 C1.02253945,23.2526255 1.42110473,23.1290961 1.97074605,23.1290961 L6.26802009,23.1290961 L6.26802009,8.54444763 L1.97074605,8.54444763 C1.42110473,8.54444763 1.02253945,8.42134864 0.777202296,8.17515065 C0.530573888,7.92981349 0.407905308,7.53167862 0.407905308,6.98160689 L0.407905308,1.7292396 C0.407905308,1.17959828 0.530573888,0.781463415 0.777202296,0.535265423 C1.02253945,0.289928264 1.42110473,0.166829268 1.97074605,0.166829268 L20.4627116,0.166829268 C21.0119225,0.166829268 21.4100574,0.289928264 21.6562554,0.535265423 C21.902023,0.781463415 22.0255524,1.17959828 22.0255524,1.7292396 L22.0255524,6.98160689 C22.0255524,7.53167862 21.902023,7.92981349 21.6562554,8.17515065 C21.4100574,8.42134864 21.0119225,8.54444763 20.4627116,8.54444763 L16.2519512,8.54444763 L16.2519512,23.1290961 L20.4627116,23.1290961 C21.0119225,23.1290961 21.4100574,23.2526255 21.6562554,23.4983931 C21.902023,23.7445911 22.0255524,24.142726 22.0255524,24.6919369 L22.0255524,29.8573601 C22.0255524,30.4074319 21.902023,30.8055667 21.6562554,31.0513343 C21.4100574,31.2975323 21.0119225,31.4202009 20.4627116,31.4202009 L1.97074605,31.4202009 Z" id="Fill-16" fill="#48407A" mask="url(#mask-12)"></path>
                        </g>
                        <g id="Group-21" transform="translate(213.486370, 0.263544)">
                            <mask id="mask-14" fill="white">
                                <use xlink:href="#path-13"></use>
                            </mask>
                            <g id="Clip-20"></g>
                            <path d="M24.5675897,31.4202009 L10.8937016,31.4202009 C7.27605452,31.4202009 4.59241033,30.6971019 2.84190818,29.2496126 C1.09054519,27.8034146 0.215939742,25.5751506 0.215939742,22.5652511 L0.215939742,9.02177905 C0.215939742,6.0123099 1.09054519,3.78447633 2.84190818,2.33698709 C4.59241033,0.889928264 7.27605452,0.166829268 10.8937016,0.166829268 L21.7457819,0.166829268 C22.2954232,0.166829268 22.6935581,0.289928264 22.9397561,0.535265423 C23.1850933,0.781463415 23.3086227,1.17959828 23.3086227,1.7292396 L23.3086227,6.98160689 C23.3086227,7.53167862 23.1850933,7.92981349 22.9397561,8.17515065 C22.6935581,8.42134864 22.2954232,8.54444763 21.7457819,8.54444763 L12.7173745,8.54444763 C11.819957,8.54444763 11.1545337,8.72522238 10.7202439,9.08677188 C10.2863845,9.44918221 10.0690244,9.99150646 10.0690244,10.7150359 L10.0690244,21.088924 C10.0690244,21.8128838 10.2355954,22.347891 10.5687374,22.6952367 C10.9010187,23.0425825 11.3998709,23.2160402 12.0661549,23.2160402 L16.2764849,23.2160402 L16.2764849,16.4443042 C16.2764849,15.8950933 16.3991535,15.4969584 16.6457819,15.2507604 C16.8911191,15.0049928 17.2892539,14.8818938 17.8393257,14.8818938 L24.5675897,14.8818938 C25.1168006,14.8818938 25.5149354,15.0049928 25.7611334,15.2507604 C26.006901,15.4969584 26.1304304,15.8950933 26.1304304,16.4443042 L26.1304304,29.8573601 C26.1304304,30.4074319 26.006901,30.8055667 25.7611334,31.0513343 C25.5149354,31.2975323 25.1168006,31.4202009 24.5675897,31.4202009" id="Fill-19" fill="#48407A" mask="url(#mask-14)"></path>
                        </g>
                        <g id="Group-24" transform="translate(243.185079, 0.263544)">
                            <mask id="mask-16" fill="white">
                                <use xlink:href="#path-15"></use>
                            </mask>
                            <g id="Clip-23"></g>
                            <path d="M8.52912482,31.4202009 L1.80043042,31.4202009 C1.2507891,31.4202009 0.852654232,31.2975323 0.607317073,31.0513343 C0.360688666,30.8055667 0.238020086,30.4074319 0.238020086,29.8573601 L0.238020086,1.7292396 C0.238020086,1.17959828 0.360688666,0.781463415 0.607317073,0.535265423 C0.852654232,0.289928264 1.2507891,0.166829268 1.80043042,0.166829268 L8.52912482,0.166829268 C9.07833572,0.166829268 9.47647059,0.289928264 9.72266858,0.535265423 C9.96843615,0.781463415 10.0915352,1.17959828 10.0915352,1.7292396 L10.0915352,11.1484648 L17.341033,11.1484648 L17.341033,1.7292396 C17.341033,1.17959828 17.4637016,0.781463415 17.7094692,0.535265423 C17.9552367,0.289928264 18.3533716,0.166829268 18.9034433,0.166829268 L25.6312769,0.166829268 C26.1809182,0.166829268 26.5794835,0.289928264 26.8252511,0.535265423 C27.0710187,0.781463415 27.1941176,1.17959828 27.1941176,1.7292396 L27.1941176,29.8573601 C27.1941176,30.4074319 27.0710187,30.8055667 26.8252511,31.0513343 C26.5794835,31.2975323 26.1809182,31.4202009 25.6312769,31.4202009 L18.9034433,31.4202009 C18.3533716,31.4202009 17.9552367,31.2975323 17.7094692,31.0513343 C17.4637016,30.8055667 17.341033,30.4074319 17.341033,29.8573601 L17.341033,20.2207747 L10.0915352,20.2207747 L10.0915352,29.8573601 C10.0915352,30.4074319 9.96843615,30.8055667 9.72266858,31.0513343 C9.47647059,31.2975323 9.07833572,31.4202009 8.52912482,31.4202009" id="Fill-22" fill="#48407A" mask="url(#mask-16)"></path>
                        </g>
                        <g id="Group-27" transform="translate(273.314204, 0.263544)">
                            <mask id="mask-18" fill="white">
                                <use xlink:href="#path-17"></use>
                            </mask>
                            <g id="Clip-26"></g>
                            <path d="M16.9193113,31.4202009 L9.8871736,31.4202009 C9.33710187,31.4202009 8.938967,31.2975323 8.69362984,31.0513343 C8.44700143,30.8055667 8.32433286,30.4074319 8.32433286,29.8573601 L8.32433286,8.54444763 L1.94341463,8.54444763 C1.39377331,8.54444763 0.995638451,8.42134864 0.749870875,8.17515065 C0.503672884,7.92981349 0.381004304,7.53167862 0.381004304,6.98160689 L0.381004304,1.7292396 C0.381004304,1.17959828 0.503672884,0.781463415 0.749870875,0.535265423 C0.995638451,0.289928264 1.39377331,0.166829268 1.94341463,0.166829268 L24.8630703,0.166829268 C25.4122812,0.166829268 25.8104161,0.289928264 26.0566141,0.535265423 C26.3023816,0.781463415 26.4254806,1.17959828 26.4254806,1.7292396 L26.4254806,6.98160689 C26.4254806,7.53167862 26.3023816,7.92981349 26.0566141,8.17515065 C25.8104161,8.42134864 25.4122812,8.54444763 24.8630703,8.54444763 L18.4821521,8.54444763 L18.4821521,29.8573601 C18.4821521,30.4074319 18.3586227,30.8055667 18.1128551,31.0513343 C17.8666571,31.2975323 17.4685222,31.4202009 16.9193113,31.4202009" id="Fill-25" fill="#48407A" mask="url(#mask-18)"></path>
                        </g>
                        <path d="M122.214878,15.8247633 L118.8133,15.8247633 C118.547303,15.8247633 118.354476,15.7653659 118.235681,15.6461406 C118.116887,15.5277762 118.057489,15.3349498 118.057489,15.0689527 L118.057489,4.75876614 L114.970545,4.75876614 C114.704548,4.75876614 114.512152,4.69936872 114.392927,4.58014347 C114.274132,4.46177905 114.214735,4.26852224 114.214735,4.00252511 L114.214735,1.46220947 C114.214735,1.19621234 114.274132,1.00338594 114.392927,0.884591105 C114.512152,0.76579627 114.704548,0.705968436 114.970545,0.705968436 L126.057633,0.705968436 C126.32363,0.705968436 126.516026,0.76579627 126.635251,0.884591105 C126.754046,1.00338594 126.813874,1.19621234 126.813874,1.46220947 L126.813874,4.00252511 C126.813874,4.26852224 126.754046,4.46177905 126.635251,4.58014347 C126.516026,4.69936872 126.32363,4.75876614 126.057633,4.75876614 L122.971119,4.75876614 L122.971119,15.0689527 C122.971119,15.3349498 122.911291,15.5277762 122.792496,15.6461406 C122.673271,15.7653659 122.480875,15.8247633 122.214878,15.8247633" id="Fill-28" fill="#48407A"></path>
                        <path d="M133.092138,15.8247633 L129.837331,15.8247633 C129.570904,15.8247633 129.378508,15.7653659 129.260143,15.6461406 C129.140488,15.5277762 129.081521,15.3349498 129.081521,15.0689527 L129.081521,1.46220947 C129.081521,1.19621234 129.140488,1.00338594 129.260143,0.884591105 C129.378508,0.76579627 129.570904,0.705968436 129.837331,0.705968436 L133.092138,0.705968436 C133.357704,0.705968436 133.5501,0.76579627 133.669756,0.884591105 C133.788121,1.00338594 133.847948,1.19621234 133.847948,1.46220947 L133.847948,6.01859397 L137.354548,6.01859397 L137.354548,1.46220947 C137.354548,1.19621234 137.413945,1.00338594 137.533171,0.884591105 C137.651966,0.76579627 137.844362,0.705968436 138.110359,0.705968436 L141.365595,0.705968436 C141.631162,0.705968436 141.823558,0.76579627 141.942353,0.884591105 C142.061578,1.00338594 142.121406,1.19621234 142.121406,1.46220947 L142.121406,15.0689527 C142.121406,15.3349498 142.061578,15.5277762 141.942353,15.6461406 C141.823558,15.7653659 141.631162,15.8247633 141.365595,15.8247633 L138.110359,15.8247633 C137.844362,15.8247633 137.651966,15.7653659 137.533171,15.6461406 C137.413945,15.5277762 137.354548,15.3349498 137.354548,15.0689527 L137.354548,10.4071162 L133.847948,10.4071162 L133.847948,15.0689527 C133.847948,15.3349498 133.788121,15.5277762 133.669756,15.6461406 C133.5501,15.7653659 133.357704,15.8247633 133.092138,15.8247633" id="Fill-30" fill="#48407A"></path>
                        <path d="M155.71924,15.8247633 L145.975911,15.8247633 C145.709914,15.8247633 145.517518,15.7653659 145.398723,15.6461406 C145.279498,15.5277762 145.2201,15.3349498 145.2201,15.0689527 L145.2201,1.46220947 C145.2201,1.19621234 145.279498,1.00338594 145.398723,0.884591105 C145.517518,0.76579627 145.709914,0.705968436 145.975911,0.705968436 L155.71924,0.705968436 C155.985237,0.705968436 156.177633,0.76579627 156.296858,0.884591105 C156.415653,1.00338594 156.475481,1.19621234 156.475481,1.46220947 L156.475481,3.91902439 C156.475481,4.18502152 156.415653,4.3774175 156.296858,4.49621234 C156.177633,4.61543759 155.985237,4.67483501 155.71924,4.67483501 L149.923687,4.67483501 L149.923687,6.29190818 L154.018666,6.29190818 C154.284232,6.29190818 154.476628,6.3513056 154.596284,6.47010043 C154.714648,6.58932568 154.774476,6.78172166 154.774476,7.04728838 L154.774476,9.29406026 C154.774476,9.5604878 154.714648,9.7533142 154.596284,9.87167862 C154.476628,9.99090387 154.284232,10.0503013 154.018666,10.0503013 L149.923687,10.0503013 L149.923687,11.8558967 L155.71924,11.8558967 C155.985237,11.8558967 156.177633,11.9157245 156.296858,12.0345194 C156.415653,12.1537446 156.475481,12.3461406 156.475481,12.6121377 L156.475481,15.0689527 C156.475481,15.3349498 156.415653,15.5277762 156.296858,15.6461406 C156.177633,15.7653659 155.985237,15.8247633 155.71924,15.8247633" id="Fill-32" fill="#48407A"></path>
                        <path d="M121.040057,20.1129555 L121.825997,22.5323242 C122.028293,23.1534146 122.607202,23.5739311 123.260143,23.5739311 L125.803902,23.5739311 C126.169326,23.5739311 126.321263,24.041363 126.025567,24.2561406 L123.967747,25.751406 C123.439197,26.1349067 123.218393,26.815825 123.419828,27.4373458 L124.205768,29.8562841 C124.318967,30.2036298 123.921263,30.492439 123.625997,30.2776614 L121.568178,28.7828264 C121.039627,28.3984648 120.323845,28.3984648 119.795294,28.7828264 L117.737475,30.2776614 C117.442209,30.492439 117.044505,30.2036298 117.157274,29.8562841 L117.943644,27.4373458 C118.145079,26.815825 117.924275,26.1349067 117.395725,25.751406 L115.337475,24.2561406 C115.042209,24.041363 115.194146,23.5739311 115.55957,23.5739311 L118.103329,23.5739311 C118.75627,23.5739311 119.335179,23.1534146 119.537044,22.5323242 L120.322984,20.1129555 C120.436184,19.7656098 120.927288,19.7656098 121.040057,20.1129555" id="Fill-34" fill="#D63C3C"></path>
                        <path d="M135.947001,20.1129555 L136.732941,22.5323242 C136.935237,23.1534146 137.514146,23.5739311 138.167088,23.5739311 L140.710846,23.5739311 C141.07627,23.5739311 141.228207,24.041363 140.932511,24.2561406 L138.874692,25.751406 C138.346141,26.1349067 138.125337,26.815825 138.326772,27.4373458 L139.112712,29.8562841 C139.225481,30.2036298 138.828207,30.492439 138.532941,30.2776614 L136.475122,28.7828264 C135.946141,28.3984648 135.230789,28.3984648 134.702238,28.7828264 L132.643989,30.2776614 C132.349154,30.492439 131.951449,30.2036298 132.064218,29.8562841 L132.850588,27.4373458 C133.052023,26.815825 132.83122,26.1349067 132.302238,25.751406 L130.244419,24.2561406 C129.948723,24.041363 130.10109,23.5739311 130.466083,23.5739311 L133.009842,23.5739311 C133.662783,23.5739311 134.242123,23.1534146 134.443989,22.5323242 L135.229928,20.1129555 C135.343128,19.7656098 135.834232,19.7656098 135.947001,20.1129555" id="Fill-36" fill="#D63C3C"></path>
                        <path d="M150.853945,20.1129555 L151.639885,22.5323242 C151.84175,23.1534146 152.42109,23.5739311 153.074032,23.5739311 L155.617791,23.5739311 C155.983214,23.5739311 156.135151,24.041363 155.839455,24.2561406 L153.781636,25.751406 C153.252654,26.1349067 153.031851,26.815825 153.233716,27.4373458 L154.019656,29.8562841 C154.132425,30.2036298 153.735151,30.492439 153.439885,30.2776614 L151.382066,28.7828264 C150.853085,28.3984648 150.137733,28.3984648 149.609182,28.7828264 L147.550933,30.2776614 C147.255667,30.492439 146.858393,30.2036298 146.971162,29.8562841 L147.757102,27.4373458 C147.958967,26.815825 147.738164,26.1349067 147.209182,25.751406 L145.151363,24.2561406 C144.855667,24.041363 145.008034,23.5739311 145.373027,23.5739311 L147.916786,23.5739311 C148.569727,23.5739311 149.149067,23.1534146 149.350933,22.5323242 L150.136872,20.1129555 C150.250072,19.7656098 150.740746,19.7656098 150.853945,20.1129555" id="Fill-38" fill="#D63C3C"></path>
                    </g>
                    <g id="FTF-Logo-Mark" transform="translate(100.000000, 0.000000)">
                        <g id="Group-3" transform="translate(0.000000, 0.920019)">
                            <mask id="mask-20" fill="white">
                                <use xlink:href="#path-19"></use>
                            </mask>
                            <g id="Clip-2"></g>
                            <path d="M95.1921318,33.5564047 L72.4378729,33.5564047 C66.5649318,33.5564047 61.3617318,29.7751341 59.5467671,24.1924518 L52.5161788,2.55066353 C51.5008376,-0.571030588 47.0848376,-0.571030588 46.0717553,2.55066353 L39.0389082,24.1924518 C37.2250729,29.7751341 32.0207435,33.5564047 26.1500612,33.5564047 L3.39467294,33.5564047 C0.111472941,33.5564047 -1.25285647,37.7566871 1.40352,39.6868518 L19.8129318,53.0613459 C24.5621082,56.5128282 26.5510024,62.6297224 24.7360376,68.2146635 L17.70432,89.8553224 C16.6889788,92.9758871 20.2624376,95.5724047 22.9176847,93.6433694 L40.2575435,81.0459106 L40.2575435,68.0350871 C36.8218729,65.3448282 34.6104847,61.1603576 34.6104847,56.4699106 L34.6104847,51.9522635 L34.6104847,46.3052047 L34.6104847,45.1757929 C34.6104847,42.6843106 36.6366494,40.6581459 39.1281318,40.6581459 C39.9627671,40.6581459 40.74432,40.8851576 41.41632,41.2815812 C41.6670494,39.0272753 43.5847906,37.2699106 45.9046024,37.2699106 C47.25312,37.2699106 48.4649788,37.8628518 49.2928376,38.8025224 C50.1218259,37.8628518 51.3325553,37.2699106 52.6810729,37.2699106 C54.0295906,37.2699106 55.2414494,37.8628518 56.0693082,38.8025224 C56.8982965,37.8628518 58.1090259,37.2699106 59.4575435,37.2699106 C61.9490259,37.2699106 63.9751906,39.2960753 63.9751906,41.7875576 L63.9751906,46.3052047 L63.9751906,48.5640282 L63.9751906,54.2110871 L63.9751906,56.4699106 C63.9751906,61.1603576 61.7626729,65.3448282 58.3281318,68.0350871 L58.3281318,81.0447812 L75.66912,93.6433694 C78.3232376,95.5724047 81.8978259,92.9758871 80.8824847,89.8553224 L73.8507671,68.2146635 C72.0369318,62.6297224 74.0246965,56.5128282 78.7750024,53.0613459 L97.1844141,39.6868518 C99.8385318,37.7566871 98.4742024,33.5564047 95.1921318,33.5564047" id="Fill-1" fill="#D63C3C" mask="url(#mask-20)"></path>
                        </g>
                        <g id="Group-6" transform="translate(36.141176, 47.225901)">
                            <mask id="mask-22" fill="white">
                                <use xlink:href="#path-21"></use>
                            </mask>
                            <g id="Clip-5"></g>
                            <path d="M19.9284706,23.1865976 C17.8989176,24.2459859 15.5937882,24.8468329 13.152,24.8468329 C11.9864471,24.8468329 10.8513882,24.7101741 9.76376471,24.4515388 L9.76376471,22.1181741 C10.8412235,22.4231153 11.9774118,22.5880094 13.152,22.5880094 C20.0018824,22.5880094 25.5755294,17.0143624 25.5755294,10.16448 L25.5755294,7.90565647 C25.5755294,3.54612706 22.0280471,-0.000225882353 17.6696471,-0.000225882353 L7.61901176,-0.000225882353 C8.14305882,2.57370353 10.4244706,4.51742118 13.152,4.51742118 L16.5402353,4.51742118 C19.0317176,4.51742118 21.0578824,6.54358588 21.0578824,9.03506824 C21.0578824,11.5265506 19.0317176,13.5527153 16.5402353,13.5527153 C15.1917176,13.5527153 13.9798588,12.9586447 13.152,12.0201035 C12.3241412,12.9586447 11.1111529,13.5527153 9.76376471,13.5527153 C7.44282353,13.5527153 5.52621176,11.7953506 5.27435294,9.54104471 C4.60348235,9.93746824 3.8208,10.16448 2.98729412,10.16448 C2.16395294,10.16448 1.39256471,9.94311529 0.728470588,9.55911529 L0.728470588,10.16448 C0.728470588,14.5161035 2.97825882,18.3527153 6.37552941,20.5720094 L6.37552941,20.8938918 L6.37552941,29.3656094 L6.37552941,36.7067859 L6.37552941,41.2244329 C6.37552941,41.8467388 6.88037647,42.3538447 7.50494118,42.3538447 C8.12837647,42.3538447 8.63435294,41.8467388 8.63435294,41.2244329 L8.63435294,40.0950212 C8.63435294,39.4704565 9.1392,38.9656094 9.76376471,38.9656094 C10.3872,38.9656094 10.8931765,39.4704565 10.8931765,40.0950212 L10.8931765,44.6126682 L10.8931765,46.3067859 C10.8931765,47.5525271 11.9051294,48.5656094 13.152,48.5656094 C14.3988706,48.5656094 15.4108235,47.5525271 15.4108235,46.3067859 L15.4108235,41.2244329 L15.4108235,40.0950212 L15.4108235,36.7067859 C15.4108235,36.0822212 15.9156706,35.5773741 16.5402353,35.5773741 C17.1636706,35.5773741 17.6696471,36.0822212 17.6696471,36.7067859 L17.6696471,41.2244329 C17.6696471,41.8467388 18.1744941,42.3538447 18.7990588,42.3538447 C19.4224941,42.3538447 19.9284706,41.8467388 19.9284706,41.2244329 L19.9284706,36.7067859 L19.9284706,23.1865976 Z" id="Fill-4" fill="#48407A" mask="url(#mask-22)"></path>
                        </g>
                        <path d="M41.3872941,52.8723953 L41.3872941,46.0959247 C41.3872941,44.8501835 40.3742118,43.8371012 39.1284706,43.8371012 C37.8827294,43.8371012 36.8696471,44.8501835 36.8696471,46.0959247 L36.8696471,49.48416 L36.8696471,52.8723953 C36.8696471,54.1181365 37.8827294,55.1312188 39.1284706,55.1312188 C40.3742118,55.1312188 41.3872941,54.1181365 41.3872941,52.8723953" id="Fill-7" fill="#48407A"></path>
                        <path d="M48.1637647,44.9665129 L48.1637647,42.7076894 C48.1637647,41.4619482 47.1506824,40.4488659 45.9049412,40.4488659 C44.6592,40.4488659 43.6461176,41.4619482 43.6461176,42.7076894 L43.6461176,44.9665129 L48.1637647,44.9665129 Z" id="Fill-9" fill="#48407A"></path>
                        <path d="M43.6461176,51.6228141 L43.6461176,52.8719435 L43.6461176,56.2601788 C43.6461176,57.50592 44.6592,58.5190024 45.9049412,58.5190024 C47.1506824,58.5190024 48.1637647,57.50592 48.1637647,56.2601788 L48.1637647,53.9211671 C46.4052706,53.6681788 44.8331294,52.8346729 43.6461176,51.6228141" id="Fill-11" fill="#48407A"></path>
                        <path d="M53.8108235,44.9665129 C54.1925647,44.9665129 54.5686588,44.9891012 54.9402353,45.02976 L54.9402353,42.7076894 C54.9402353,41.4619482 53.9271529,40.4488659 52.6814118,40.4488659 C51.4356706,40.4488659 50.4225882,41.4619482 50.4225882,42.7076894 L50.4225882,44.9665129 L53.8108235,44.9665129 Z" id="Fill-13" fill="#48407A"></path>
                        <path d="M50.4225882,54.0018071 L50.4225882,56.2606306 C50.4225882,57.5063718 51.4356706,58.5194541 52.6814118,58.5194541 C53.9271529,58.5194541 54.9402353,57.5063718 54.9402353,56.2606306 C54.9402353,55.0148894 53.9271529,54.0018071 52.6814118,54.0018071 L50.4225882,54.0018071 Z" id="Fill-15" fill="#48407A"></path>
                        <path d="M61.7167059,42.7076894 C61.7167059,41.4619482 60.7036235,40.4488659 59.4578824,40.4488659 C58.2121412,40.4488659 57.1990588,41.4619482 57.1990588,42.7076894 L57.1990588,45.54816 C58.9869176,46.18176 60.5455059,47.3021365 61.7167059,48.7500424 L61.7167059,42.7076894 Z" id="Fill-17" fill="#48407A"></path>
                        <path d="M54.9402353,91.8382306 C54.3156706,91.8382306 53.8108235,92.3430776 53.8108235,92.9676424 C53.8108235,93.5910776 54.3156706,94.0970541 54.9402353,94.0970541 C55.5636706,94.0970541 56.0696471,93.5910776 56.0696471,92.9676424 C56.0696471,92.3430776 55.5636706,91.8382306 54.9402353,91.8382306" id="Fill-19" fill="#48407A"></path>
                    </g>
                </g>
            </g>
        </g>
    </g>
</svg>